#!OML:ASF E:\emotionWalksFemale\Project 1\Capture day 1\Session 1\Female1.ASF
:FULLY-SPECIFIED
:DEGREES
866
root 9.01146 15.5934 -6.50315 179.856 2.29965 -180.302
lowerback 4.69087 1.40121 1.80613
upperback -0.121248 2.12533 2.49729
thorax -2.78567 1.08757 1.40616
lowerneck -3.25175 -2.04243 -7.72806
upperneck 33.2454 -15.541 17.6012
head 13.9317 -8.37962 5.90739
rclavicle -1.76421e-015 -6.36111e-015
rhumerus -37.3967 13.6088 -84.771
rradius 34.6034
rwrist 15.3522
rhand -6.84149 -51.3565
rfingers 7.12502
rthumb 19.0233 -80.4462
lclavicle -1.76421e-015 -6.36111e-015
lhumerus -39.6742 5.26072 83.7991
lradius 35.8215
lwrist -15.5137
lhand -2.79102 -33.3111
lfingers 7.12502
lthumb 22.9145 -4.6527
rfemur 6.44631 0.69853 23.9711
rtibia 38.3615
rfoot 1.51963 -0.523428
rtoes -4.18486
lfemur -15.7843 -22.4557 -23.5651
ltibia 19.2161
lfoot -9.78823 14.7173
ltoes -1.12779
867
root 8.98912 15.6005 -6.61501 179.77 2.30273 -180.429
lowerback 4.71643 1.25227 1.60288
upperback -0.0914838 1.91821 2.55272
thorax -2.77517 0.988254 1.5914
lowerneck -3.5898 -2.05006 -7.52596
upperneck 33.4438 -15.4202 17.1903
head 14.0115 -8.30166 5.70671
rclavicle -1.55301e-014 1.82882e-014
rhumerus -37.7709 14.0293 -84.5193
rradius 34.4566
rwrist 15.2534
rhand -6.71224 -51.3794
rfingers 7.12502
rthumb 19.1476 -80.4569
lclavicle -1.55301e-014 1.82882e-014
lhumerus -39.7045 5.45982 83.63
lradius 35.9867
lwrist -15.2476
lhand -2.89179 -33.6131
lfingers 7.12502
lthumb 22.8178 -4.94274
rfemur 5.59744 0.665005 23.4629
rtibia 40.3446
rfoot 3.30644 0.0796152
rtoes -2.93761
lfemur -14.9832 -22.1683 -24.1096
ltibia 18.7878
lfoot -9.26674 14.6139
ltoes -1.07843
868
root 8.9675 15.6111 -6.72884 179.647 2.30107 -180.64
lowerback 4.94265 1.18136 1.34852
upperback 0.16518 1.81431 2.59055
thorax -2.64473 0.942317 1.77814
lowerneck -4.35915 -2.1372 -7.49947
upperneck 33.2889 -15.2357 17.1659
head 14.0726 -8.11034 5.69281
rclavicle -2.06239e-015 -2.8625e-014
rhumerus -37.4093 14.1409 -83.9303
rradius 34.145
rwrist 15.3356
rhand -6.28112 -51.5584
rfingers 7.12502
rthumb 19.5621 -80.5943
lclavicle -2.06239e-015 -2.8625e-014
lhumerus -39.0984 5.49996 83.7137
lradius 36.1908
lwrist -14.9641
lhand -3.16332 -33.8096
lfingers 7.12502
lthumb 22.5572 -5.10737
rfemur 4.73926 0.582372 22.8539
rtibia 42.3611
rfoot 4.74069 0.910301
rtoes -4.11004
lfemur -14.1434 -21.9144 -24.7755
ltibia 18.3782
lfoot -9.10055 14.6708
ltoes -0.479724
869
root 8.94793 15.6211 -6.84045 179.504 2.27927 -180.956
lowerback 5.03997 1.27795 1.24441
upperback -0.101297 1.93767 2.53696
thorax -2.97832 1.0007 1.76699
lowerneck -3.29749 -2.03541 -7.64929
upperneck 33.0873 -15.185 17.2478
head 13.7473 -8.20493 5.79249
rclavicle 3.60297e-015 -5.56597e-015
rhumerus -38.4367 13.7922 -83.3807
rradius 33.9331
rwrist 15.4572
rhand -5.96737 -51.5636
rfingers 7.12502
rthumb 19.8637 -80.5685
lclavicle 3.60297e-015 -5.56597e-015
lhumerus -39.7254 5.00107 83.9322
lradius 36.7873
lwrist -14.6083
lhand -3.24969 -33.7984
lfingers 7.12502
lthumb 22.4743 -5.08613
rfemur 3.86513 0.563517 22.187
rtibia 44.4282
rfoot 5.81972 1.5808
rtoes -5.88445
lfemur -13.2698 -21.549 -25.5643
ltibia 17.9124
lfoot -8.88765 14.7385
ltoes -2.10941
870
root 8.92919 15.6301 -6.94958 179.388 2.31529 -181.19
lowerback 5.09269 1.29252 1.12187
upperback -0.172316 1.94643 2.48368
thorax -3.08346 1.00422 1.77808
lowerneck -2.97476 -1.98354 -7.69526
upperneck 33.06 -15.1697 17.2737
head 13.6651 -8.23951 5.82382
rclavicle -2.84759e-014 -2.46493e-014
rhumerus -38.6293 13.7861 -82.9977
rradius 33.2892
rwrist 15.2532
rhand -5.68005 -51.6342
rfingers 7.12502
rthumb 20.1399 -80.6103
lclavicle -2.84759e-014 -2.46493e-014
lhumerus -39.8722 4.78529 83.9706
lradius 37.3048
lwrist -14.0891
lhand -3.24522 -33.7629
lfingers 7.12502
lthumb 22.4786 -5.05113
rfemur 2.9113 0.612155 21.6427
rtibia 46.5633
rfoot 6.72635 2.07856
rtoes -8.27432
lfemur -12.3932 -21.3158 -26.2044
ltibia 17.3374
lfoot -8.36953 14.8391
ltoes -3.13293
871
root 8.91185 15.6382 -7.05718 179.283 2.32168 -181.398
lowerback 5.12423 1.31813 1.02878
upperback -0.13032 1.97219 2.45868
thorax -3.06059 1.01757 1.80226
lowerneck -2.81536 -1.95604 -7.79443
upperneck 32.9517 -15.1027 17.3575
head 13.5827 -8.22277 5.89134
rclavicle 8.00108e-015 3.18055e-015
rhumerus -38.311 13.7317 -82.4673
rradius 32.42
rwrist 15.1125
rhand -5.35336 -51.7442
rfingers 7.12502
rthumb 20.4539 -80.6868
lclavicle 8.00108e-015 3.18055e-015
lhumerus -39.5992 4.5602 84.1168
lradius 37.5178
lwrist -13.6355
lhand -3.73312 -33.782
lfingers 7.12502
lthumb 22.0102 -5.0144
rfemur 1.88765 0.629208 21.1437
rtibia 48.7414
rfoot 7.49794 2.52257
rtoes -10.1904
lfemur -11.4905 -21.2732 -26.7945
ltibia 16.6933
lfoot -7.89097 14.9534
ltoes -3.05
